<svg width="272" height="127" viewBox="0 0 272 127" fill="none" xmlns="http://www.w3.org/2000/svg">
<g clip-path="url(#clip0_191_144)">
<path d="M90.53 2.10291L73.2906 35.5395" stroke="#231F20" stroke-width="4" stroke-miterlimit="10"/>
<path d="M53.3829 2.10291L70.6223 35.5395" stroke="#231F20" stroke-width="4" stroke-miterlimit="10"/>
<path d="M111.885 0.773926L129.124 34.2189" stroke="#231F20" stroke-width="4" stroke-miterlimit="10"/>
<path d="M149.032 0.773926L131.793 34.2189" stroke="#231F20" stroke-width="4" stroke-miterlimit="10"/>
<path d="M184.556 0.773926L201.796 34.2189" stroke="#231F20" stroke-width="4" stroke-miterlimit="10"/>
<path d="M221.704 0.773926L204.464 34.2189" stroke="#231F20" stroke-width="4" stroke-miterlimit="10"/>
<path d="M115.657 29.9049H25.5873C11.6868 29.9049 0.418221 41.237 0.418221 55.2157V99.966C0.418221 113.945 11.6868 125.277 25.5873 125.277H115.657C129.558 125.277 140.826 113.945 140.826 99.966V55.2157C140.826 41.237 129.558 29.9049 115.657 29.9049Z" fill="#548ACC"/>
<path d="M91.4334 43.1702H26.4154C16.3815 43.1702 8.2475 51.35 8.2475 61.4404V93.7414C8.2475 103.832 16.3815 112.012 26.4154 112.012H91.4334C101.467 112.012 109.601 103.832 109.601 93.7414V61.4404C109.601 51.35 101.467 43.1702 91.4334 43.1702Z" fill="white"/>
<path d="M124.817 75.7979C128.558 75.7979 131.592 72.7474 131.592 68.9844C131.592 65.2214 128.558 62.1709 124.817 62.1709C121.075 62.1709 118.041 65.2214 118.041 68.9844C118.041 72.7474 121.075 75.7979 124.817 75.7979Z" fill="white" stroke="#231F20" stroke-miterlimit="10"/>
<path d="M124.817 98.7114C128.558 98.7114 131.592 95.6609 131.592 91.898C131.592 88.135 128.558 85.0845 124.817 85.0845C121.075 85.0845 118.041 88.135 118.041 91.898C118.041 95.6609 121.075 98.7114 124.817 98.7114Z" fill="white" stroke="#231F20" stroke-miterlimit="10"/>
<path d="M174.159 29.8784H84.0893C70.1888 29.8784 58.9202 41.2105 58.9202 55.1893V99.9395C58.9202 113.918 70.1888 125.25 84.0893 125.25H174.159C188.06 125.25 199.328 113.918 199.328 99.9395V55.1893C199.328 41.2105 188.06 29.8784 174.159 29.8784Z" fill="#F68952"/>
<path d="M149.935 43.1437H84.9174C74.8835 43.1437 66.7495 51.3235 66.7495 61.4139V93.7149C66.7495 103.805 74.8835 111.985 84.9174 111.985H149.935C159.969 111.985 168.103 103.805 168.103 93.7149V61.4139C168.103 51.3235 159.969 43.1437 149.935 43.1437Z" fill="white"/>
<path d="M183.319 74.4689C187.06 74.4689 190.094 71.4184 190.094 67.6554C190.094 63.8924 187.06 60.8419 183.319 60.8419C179.577 60.8419 176.543 63.8924 176.543 67.6554C176.543 71.4184 179.577 74.4689 183.319 74.4689Z" fill="white" stroke="#231F20" stroke-miterlimit="10"/>
<path d="M183.319 97.3908C187.06 97.3908 190.094 94.3403 190.094 90.5773C190.094 86.8143 187.06 83.7638 183.319 83.7638C179.577 83.7638 176.543 86.8143 176.543 90.5773C176.543 94.3403 179.577 97.3908 183.319 97.3908Z" fill="white" stroke="#231F20" stroke-miterlimit="10"/>
<path d="M246.831 29.8784H156.761C142.86 29.8784 131.592 41.2105 131.592 55.1893V99.9395C131.592 113.918 142.86 125.25 156.761 125.25H246.831C260.731 125.25 272 113.918 272 99.9395V55.1893C272 41.2105 260.731 29.8784 246.831 29.8784Z" fill="#EA5B6F"/>
<path d="M222.607 43.1437H157.589C147.555 43.1437 139.421 51.3235 139.421 61.4139V93.7149C139.421 103.805 147.555 111.985 157.589 111.985H222.607C232.641 111.985 240.775 103.805 240.775 93.7149V61.4139C240.775 51.3235 232.641 43.1437 222.607 43.1437Z" fill="white"/>
<path d="M255.99 74.4689C259.732 74.4689 262.766 71.4184 262.766 67.6554C262.766 63.8924 259.732 60.8419 255.99 60.8419C252.248 60.8419 249.215 63.8924 249.215 67.6554C249.215 71.4184 252.248 74.4689 255.99 74.4689Z" fill="white"/>
<path d="M255.99 97.3908C259.732 97.3908 262.766 94.3403 262.766 90.5773C262.766 86.8143 259.732 83.7638 255.99 83.7638C252.248 83.7638 249.215 86.8143 249.215 90.5773C249.215 94.3403 252.248 97.3908 255.99 97.3908Z" fill="white"/>
</g>
<defs>
<clipPath id="clip0_191_144">
<rect width="272" height="127" fill="white"/>
</clipPath>
</defs>
</svg>
