<?xml version="1.0" encoding="UTF-8"?>
<svg id="Layer_1" xmlns="http://www.w3.org/2000/svg" xmlns:xlink="http://www.w3.org/1999/xlink" version="1.1" viewBox="0 0 612 792">
  <!-- Generator: Adobe Illustrator 29.2.1, SVG Export Plug-In . SVG Version: 2.1.0 Build 116)  -->
  <defs>
    <style>
      .st0, .st1 {
        fill: none;
      }

      .st2 {
        fill: #f68954;
      }

      .st3 {
        font-family: Alexandria-Black, Alexandria;
        font-weight: 800;
      }

      .st3, .st4 {
        fill: #231f20;
        font-size: 46.29px;
      }

      .st5 {
        stroke-width: 2.15px;
      }

      .st5, .st6 {
        fill: #fff;
      }

      .st5, .st1 {
        stroke: #231f20;
        stroke-miterlimit: 10;
      }

      .st7 {
        fill: #568ac8;
      }

      .st8 {
        fill: #ea5b6f;
      }

      .st4 {
        font-family: Alexandria-Bold, Alexandria;
        font-weight: 700;
      }

      .st1 {
        stroke-width: 8.61px;
      }

      .st9 {
        clip-path: url(#clippath);
      }
    </style>
    <clipPath id="clippath">
      <rect class="st0" x="303.46" y="167.14" width="215.97" height="100.84"/>
    </clipPath>
  </defs>
  <g class="st9">
    <g>
      <path class="st1" d="M375.34,168.81l-13.69,26.55"/>
      <path class="st1" d="M345.85,168.81l13.69,26.55"/>
      <path class="st1" d="M392.3,167.75l13.69,26.56"/>
      <path class="st1" d="M421.79,167.75l-13.69,26.56"/>
      <path class="st1" d="M450,167.75l13.69,26.56"/>
      <path class="st1" d="M479.49,167.75l-13.69,26.56"/>
      <path class="st7" d="M395.29,190.88h-71.51c-11.04,0-19.98,9-19.98,20.1v35.53c0,11.1,8.95,20.1,19.98,20.1h71.51c11.04,0,19.98-9,19.98-20.1v-35.53c0-11.1-8.95-20.1-19.98-20.1Z"/>
      <path class="st6" d="M376.06,201.42h-51.62c-7.97,0-14.43,6.49-14.43,14.51v25.65c0,8.01,6.46,14.51,14.43,14.51h51.62c7.97,0,14.42-6.49,14.42-14.51v-25.65c0-8.01-6.46-14.51-14.42-14.51Z"/>
      <path class="st5" d="M402.57,227.32c2.97,0,5.38-2.42,5.38-5.41s-2.41-5.41-5.38-5.41-5.38,2.42-5.38,5.41,2.41,5.41,5.38,5.41Z"/>
      <path class="st5" d="M402.57,245.51c2.97,0,5.38-2.42,5.38-5.41s-2.41-5.41-5.38-5.41-5.38,2.42-5.38,5.41,2.41,5.41,5.38,5.41Z"/>
      <path class="st2" d="M441.74,190.86h-71.51c-11.04,0-19.98,9-19.98,20.1v35.53c0,11.1,8.95,20.1,19.98,20.1h71.51c11.04,0,19.98-9,19.98-20.1v-35.53c0-11.1-8.95-20.1-19.98-20.1Z"/>
      <path class="st6" d="M422.51,201.39h-51.62c-7.97,0-14.43,6.49-14.43,14.51v25.65c0,8.01,6.46,14.51,14.43,14.51h51.62c7.97,0,14.43-6.49,14.43-14.51v-25.65c0-8.01-6.46-14.51-14.43-14.51Z"/>
      <path class="st5" d="M449.02,226.27c2.97,0,5.38-2.42,5.38-5.41s-2.41-5.41-5.38-5.41-5.38,2.42-5.38,5.41,2.41,5.41,5.38,5.41Z"/>
      <path class="st5" d="M449.02,244.47c2.97,0,5.38-2.42,5.38-5.41s-2.41-5.41-5.38-5.41-5.38,2.42-5.38,5.41,2.41,5.41,5.38,5.41Z"/>
      <path class="st8" d="M499.44,190.86h-71.51c-11.04,0-19.98,9-19.98,20.1v35.53c0,11.1,8.95,20.1,19.98,20.1h71.51c11.04,0,19.98-9,19.98-20.1v-35.53c0-11.1-8.95-20.1-19.98-20.1Z"/>
      <path class="st6" d="M480.21,201.39h-51.62c-7.97,0-14.43,6.49-14.43,14.51v25.65c0,8.01,6.46,14.51,14.43,14.51h51.62c7.97,0,14.43-6.49,14.43-14.51v-25.65c0-8.01-6.46-14.51-14.43-14.51Z"/>
      <path class="st6" d="M506.72,226.27c2.97,0,5.38-2.42,5.38-5.41s-2.41-5.41-5.38-5.41-5.38,2.42-5.38,5.41,2.41,5.41,5.38,5.41Z"/>
      <path class="st6" d="M506.72,244.47c2.97,0,5.38-2.42,5.38-5.41s-2.41-5.41-5.38-5.41-5.38,2.42-5.38,5.41,2.41,5.41,5.38,5.41Z"/>
    </g>
  </g>
  <g>
    <text class="st4" transform="translate(135.08 260.88)"><tspan x="0" y="0">What’s </tspan></text>
    <text class="st3" transform="translate(222.78 308.11)"><tspan x="0" y="0">Reality?</tspan></text>
  </g>
</svg>